<svg xmlns="http://www.w3.org/2000/svg" width="512" height="512">
  <path d="m188.273 81.726 3.755-.03 4.08-.002a2728.2 2728.2 0 0 1 16.056-.061c2.447-.004 4.893-.01 7.339-.017 8.544-.025 17.088-.038 25.633-.042a4951.96 4951.96 0 0 0 23.84-.075c6.837-.035 13.673-.05 20.51-.05 4.077-.002 8.154-.01 12.231-.039 3.838-.026 7.676-.028 11.514-.012 1.402.002 2.804-.005 4.206-.02 9.407-.102 17.309.782 24.469 7.377 5.537 5.855 7.65 12.205 7.532 20.182l-.021 2.13c-.226 7.287-2.143 11.3-6.792 16.683-3.63 3.112-7.065 5.73-11.625 7.25l-1 2h2l1.234 1.324c2.412 2.289 4.948 3.217 8.016 4.488l1.859.782a313.09 313.09 0 0 0 9.762 3.883c13.589 5.17 26.373 11.898 33.32 25.421 3.188 8.284 4.086 16.745 4.184 25.54l.042 2.257c-.055 6.458-1.537 11.135-5.854 16.117-2.202 1.88-3.984 2.978-6.563 4.188l-.01 2.22c-.082 17.89-.174 35.779-.278 53.668-.05 8.651-.096 17.303-.134 25.954-.033 7.548-.073 15.095-.12 22.643-.026 3.99-.048 7.98-.061 11.97-.013 3.769-.036 7.538-.064 11.307-.014 2.015-.017 4.03-.02 6.045-.196 21.75-3.642 41.143-19.188 57.505-13.915 13.075-28.704 17.992-47.517 17.979l-3.99.02c-3.589.017-7.178.022-10.767.024-2.249 0-4.498.005-6.748.01-7.867.019-15.734.027-23.6.026-7.302-.002-14.602.02-21.903.051-6.295.026-12.59.037-18.885.036-3.748 0-7.496.005-11.244.026-3.53.02-7.059.02-10.588.005-1.89-.003-3.781.013-5.671.03-17.654-.127-31.88-7.166-44.212-19.519-9.752-9.948-15.521-22.048-17.09-35.855l-.258-2.255c-.826-7.712-.96-15.39-.97-23.14l-.031-4.619c-.027-4.118-.043-8.237-.056-12.356-.016-4.326-.042-8.653-.068-12.98-.046-8.166-.083-16.333-.116-24.499-.039-9.309-.088-18.617-.138-27.926-.103-19.123-.193-38.247-.273-57.37l-7 2c-4.696-3.619-4.696-3.619-5.46-7.094-.143-2.507-.129-4.96-.04-7.469l.052-2.697c.464-14.674 4.67-25.595 15.448-35.74 10.344-8.232 23.236-12.351 35.457-16.982 4.575-1.567 4.575-1.567 7.543-5.018h2c-1.26-2.518-2.215-2.693-4.75-3.813-7.387-3.588-10.687-9.06-14.25-16.187-.787-9.08-1.344-17.291 4.223-24.98 6.125-6.96 11.489-10.253 21.05-10.294Zm108.41 112.18c-4.178 4.44-7.04 9.931-10.134 15.145-3.274 5.365-6.466 10.237-12.486 12.761-6.214.565-10.497.224-16.063-2.812a77.417 77.417 0 0 1-3.062-3.188c-2.17-2.302-2.78-2.773-6-3.562-4.309 1.1-5.459 3.104-7.938 6.75v2l-5 2-2.187 1.187c-5.58 1.613-10.995.792-16.063-1.937-1.45-1.187-2.895-2.385-4.27-3.66-1.716-1.606-1.716-1.606-4.48-3.59-4.41.218-6.687 2.097-9.937 4.937-4.147 3.621-7.788 5.9-13.407 6.18-5.197-.584-8.633-1.541-12.656-5.117-2.23-2.868-4.127-5.89-6-9l-1.676-2.773c-1.05-1.748-2.091-3.5-3.125-5.258-1.05-1.899-1.05-1.899-2.199-2.969-2.04.026-2.04.026-4.375.312-.791.08-1.583.158-2.398.239-2.501.358-2.501.358-5.227 2.449-.462 3.038-.462 3.038-.388 6.69l-.016 2.107c-.014 2.343-.007 4.686 0 7.029l-.02 5.026c-.019 4.562-.018 9.125-.012 13.687.003 3.812-.003 7.623-.009 11.435-.014 9.001-.012 18.003-.001 27.004.011 9.27-.003 18.538-.03 27.807-.022 7.965-.028 15.93-.022 23.894.003 4.753 0 9.506-.017 14.26-.015 4.48-.011 8.96.008 13.44.003 1.636 0 3.272-.01 4.909-.102 17.094 4.4 30.875 16.185 43.607 9.104 8.22 21.357 13.205 33.63 13.245l3.176.018 3.454.003 3.663.015c3.31.012 6.62.02 9.93.024 2.075.003 4.148.007 6.222.012 6.504.013 13.008.023 19.512.027 7.477.004 14.955.022 22.433.05 5.798.023 11.596.033 17.394.034 3.454.001 6.908.007 10.362.025 3.864.02 7.729.015 11.593.008l3.405.028c14.806-.077 29.573-3.92 40.558-14.384v-2h2a87.178 87.178 0 0 0 4.375-6.188l1.172-1.693c6.94-10.654 8.056-22.3 8.05-34.712a1521.215 1521.215 0 0 0 .105-16.793c.005-2.555.016-5.109.028-7.663.043-8.924.064-17.847.066-26.77.003-8.302.054-16.602.127-24.903.06-7.15.087-14.298.086-21.448 0-4.261.015-8.521.065-12.782.045-4.001.048-8 .017-12.002-.004-1.464.008-2.93.036-4.393.319-8.059.319-8.059-3.071-15.032-2.276-1.801-4.512-3.232-7.056-4.621l-1.964-1.327c-2.51-1.649-4.515-2.647-7.536-2.798-3.11 1.4-5.28 3.327-7.754 5.652-4.253 3.587-7.864 3.854-13.281 3.72-4.918-.492-7.609-2.335-10.938-5.88-2.78-3.412-4.204-6.998-5.652-11.117-1.785-5.407-1.785-5.407-5.875-9.25-3.114-.318-3.114-.318-5.316 1.906Z"/>
  <path d="M296.848 212.902 303 213c1.722 2.634 2.005 3.924 1.813 7.125C304 223 304 223 301 225c-3.063-.188-3.063-.188-6-1-2-3-2-3-1.688-6.625.883-4.332.883-4.332 3.536-4.473ZM346.938 218.688C350 219 350 219 351.813 220.25c1.366 2.014 1.966 3.32 2.187 5.75-.5 2.188-.5 2.188-2 4-3.438.875-3.438.875-7 1l-3-2c-.363-1.875-.363-1.875-.313-4l.012-2.125c.547-3.406 1.985-3.841 5.238-4.188ZM206 232c2.161 3.242 2.642 4.237 2 8-2.188 2.375-2.188 2.375-5 4-3.423-.16-4.563-.563-7-3-.375-3.438-.375-3.438 0-7 2.98-3.668 5.687-3.313 10-2ZM321 232c2 2 2 2 2.375 4.875C323 240 323 240 321.312 242.438 319 244 319 244 316.438 243.938 312.44 242.4 312.44 242.4 311 240c.063-3.563.063-3.563 1-7 2.974-2.549 5.397-2.138 9-1ZM287.563 237.313C290 238 290 238 292 239c.875 2.75.875 2.75 1 6-1.938 2.875-1.938 2.875-4 5-3.74-.25-5.458-.39-8-3.25-1-2.75-1-2.75-.375-5.438 1.86-3.127 3.214-4.454 6.938-4ZM236.625 238.5c2.375 1.5 2.375 1.5 3.938 4.313.437 3.187.437 3.187-1.125 6.062C237 251 237 251 234.5 251.625c-2.5-.625-2.5-.625-4.938-2.75C228 246 228 246 228.5 242.812 230 240 230 240 231.813 238.5c2.187-.5 2.187-.5 4.812 0ZM171.563 243.563C175 244 175 244 177 246c.554 6.096.554 6.096-1.188 8.938-2.447 1.434-4.017 1.411-6.812 1.062-3-2-3-2-3.875-4.313C165 249 165 249 166 246.188c2-2.187 2-2.187 5.563-2.625ZM256.688 243.688 260 244c1.688 2.688 1.688 2.688 3 6-1.09 2.454-2.11 4.11-4 6a176.79 176.79 0 0 1-7-1c-1.529-3.46-2.257-5.213-1.063-8.875C253 244 253 244 256.688 243.687ZM297 256l.813 1.938c1.074 2.393 1.074 2.393 4.187 3.062v2h2v2h2c1.698 1.729 3.17 3.612 4.7 5.492 1.826 1.99 3.452 3.458 5.57 5.078 6.776 5.405 6.776 5.405 8.73 9.43.626 6.199-1.975 12.25-4 18-.807 2.595-1.559 5.201-2.313 7.813l-1.05 3.269c-.7 3.209-.573 4.795.363 7.918 1.608 2.155 1.608 2.155 3.71 4.102l2.274 2.234 2.391 2.289 2.367 2.313a914.837 914.837 0 0 0 4.373 4.24L335 339l1.749 1.615C338 342 338 342 338 344h2c-.64 5.135-1.687 10.051-3.031 15.05l-.594 2.243c-.412 1.551-.825 3.102-1.24 4.652-.638 2.377-1.268 4.756-1.897 7.135l-1.207 4.533-.571 2.156c-1.344 5-1.344 5-2.46 7.231a144.33 144.33 0 0 1-8.453 2.707l-2.583.753c-1.808.523-3.617 1.041-5.427 1.555a763.77 763.77 0 0 0-8.283 2.436c-1.756.504-3.513 1.006-5.27 1.506l-2.497.757c-5.763 1.587-5.763 1.587-9.386.08-2.68-2.288-4.972-4.763-7.288-7.419-3.012-3.69-3.012-3.69-6.813-6.375v-2h-2c-1.486-1.794-2.824-3.667-4.172-5.566-1.804-1.76-1.804-1.76-4.559-1.128a140.342 140.342 0 0 0-9.402 2.358l-3.441.961c-2.377.67-4.752 1.344-7.125 2.023l-3.434.954-3.121.885c-2.886.54-4.1.725-6.746-.487a83.267 83.267 0 0 1-5.422-5.059l-1.53-1.528a674.19 674.19 0 0 1-3.176-3.205 746.41 746.41 0 0 0-4.892-4.905l-3.09-3.112-1.486-1.483C206 358.23 206 358.23 206 356h-2v-2h-2c-1.374-4.436-.239-7.98.95-12.344l.647-2.442a926.79 926.79 0 0 1 1.38-5.104 784.954 784.954 0 0 0 2.068-7.801c.446-1.656.893-3.31 1.342-4.965.2-.776.402-1.553.61-2.352 1.202-4.307 2.241-7.27 6.003-9.992 2.761-1.08 2.761-1.08 5.902-1.887l3.448-.904 3.588-.897 3.576-.931c4.81-1.244 9.605-2.445 14.486-3.381l.33-1.766c1.314-6.82 2.961-13.52 4.732-20.234l.815-3.137c1.992-7.602 1.992-7.602 3.123-9.863 2.5-.89 4.958-1.663 7.508-2.383l2.3-.664c1.61-.463 3.223-.921 4.837-1.376 2.453-.694 4.9-1.406 7.347-2.12 1.568-.448 3.135-.894 4.703-1.34l2.201-.644c4.517-1.255 8.416-1.681 13.104-1.473ZM338 256c2.438 2.125 2.438 2.125 4 5-1.073 5.073-1.073 5.073-3 7-6.284.582-6.284.582-9-1.625-1.352-3.211-1.005-5.074 0-8.375 3.242-2.161 4.237-2.642 8-2ZM200 260c1.875 1.125 1.875 1.125 3 3 .394 3.15.529 5.12-1.125 7.875-2.756 1.654-4.726 1.519-7.875 1.125-1.875-1.125-1.875-1.125-3-3-.394-3.15-.529-5.12 1.125-7.875 2.756-1.654 4.726-1.519 7.875-1.125ZM223.625 262.875c3.215 1.523 4.12 2.805 5.375 6.125-.813 3.313-.813 3.313-2 6-6.44 1.336-6.44 1.336-8.875-.125-1.489-2.48-2.125-3.949-2.125-6.875 3.648-4.936 3.648-4.936 7.625-5.125ZM176 282c1.522 3.043 1.239 5.654 1 9-3.85 2.567-5.586 1.833-10 1-2.201-5.38-2.201-5.38-1.25-8.313 2.823-3.81 6.019-2.533 10.25-1.687ZM201 292c2 2 2 2 2.313 4.938C203 300 203 300 201.875 301.875c-2.756 1.654-4.726 1.519-7.875 1.125-1.875-1.125-1.875-1.125-3-3-.393-3.145-.476-5.133 1.063-7.938 3.12-1.711 5.582-.855 8.937-.062ZM175 313c2 2 2 2 2.125 5.625L177 322c-2.688 1.688-2.688 1.688-6 3-2.813-1.063-2.813-1.063-5-3-1.026-2.271-1.03-3.658-.813-6.125C166 314 166 314 167.75 312.687c2.82-.861 4.457-.569 7.25.313ZM191.688 324.625C194 326 194 326 196 329c-.21 2.788-.66 4.507-2.25 6.813-2.419 1.64-3.886 1.617-6.75 1.187-1.813-1.063-1.813-1.063-3-3-.5-3.5-.5-3.5 0-7 2.748-2.591 3.974-3.239 7.688-2.375ZM177.375 355.688c3.625.312 3.625.312 5.625 2 1.278 2.955 1.08 4.302 0 7.312-1.663 2.41-2.557 2.91-5.438 3.5-2.562-.5-2.562-.5-5-2.625C171 363 171 363 171.688 359.75c1.766-3.7 1.766-3.7 5.688-4.063ZM183.375 386.625C187 387 187 387 189 389.188c1.138 3.2 1.196 4.652 0 7.812-3.242 2.161-4.237 2.642-8 2-2.438-2.125-2.438-2.125-4-5 1.444-6.827 1.444-6.827 6.375-7.375ZM217 387c1.938 1.063 1.938 1.063 3 3-.333 6.333-.333 6.333-3 9-3.103.33-5.158.505-7.875-1.125-1.654-2.756-1.519-4.726-1.125-7.875 2.21-3.682 4.982-3.502 9-3Z"/>
</svg>
